<svg id="Layer_2" data-name="Layer 2" xmlns="http://www.w3.org/2000/svg" viewBox="0 0 131.7 595.28"><defs><style>.cls-1{fill:#fff;stroke:#231f20;stroke-miterlimit:10;stroke-width:0.56px;}</style></defs><path id="outer-hull" class="cls-1" d="M65.84,178.58s-15.35.22-18.13-2.52h0l-1.23,53a105,105,0,0,0-5.21,24.14H65.84v-74.6h0"/><path id="s2-outer-hull" class="cls-1" d="M41.27,253.18V373.24s7.33.56,13.46.56c5.77,0,11.11.12,11.11.12V253.18H41.27"/><path id="fuel-tank-s2" class="cls-1" d="M65.84,250.89s-9.42-1.15-16.52,5.3L46,354s6.62,8.27,19.85,9.58Z"/><path id="j2-engine-1" class="cls-1" d="M65.84,242.05a29.9,29.9,0,0,1-3.69-.13s-4.46,8-4.33,9.3a26.67,26.67,0,0,1,8-.62Z"/><path id="fuel-tank-sivb" class="cls-1" d="M65.84,183s-14.71,2.55-16.52,16.3V234s1.94,7.6,16.52,8.32V183"/><path id="instrument-unit" class="cls-1" d="M65.84,174.54s-3.94.1-9.37-.33c-7.11-.56-8.76-2-8.76-2V182s10.1,2.7,18.13,1v-8.44"/><path id="lunar-excursion-module-outer-hull" class="cls-1" d="M55.2,136s-7.59,14.1-7.49,36.23c0,0,1.82,2.28,18.13,2.28V136Z"/><polygon id="lunar-excursion-module" class="cls-1" points="65.84 146.86 62.58 146.86 59.87 147.86 58.15 150.44 55.2 151.87 54.57 155.73 53 157.88 53 160.6 54.57 161.88 53.86 167.61 56 168.47 55.2 171.61 56.78 172.26 58.01 170.04 59.42 170.18 60.52 172.26 61.58 169.18 62.93 168.76 62.58 172.26 65.84 172.26 65.84 146.86"/><path id="service-module" class="cls-1" d="M65.84,118.26,55.2,115.77V136l6.3,1.12s-2.2,4.48-1.83,6h6.17V118.26h0"/><path id="command-module" class="cls-1" d="M65.84,99.26H63.67s-6.78,9.85-8.47,16.51a40.71,40.71,0,0,0,10.64,2.49v-19h0"/><path id="launch-escape-system" class="cls-1" d="M65.84,57a12.7,12.7,0,0,0-3.13,6l.38,21.87a3.58,3.58,0,0,0-1.59,1.85L63,88.51s.71,7.27.7,10.75h2.17Z"/><path id="sic-outer-hull" class="cls-1" d="M65.84,374.06l-24.57-.73L40.71,516a39.43,39.43,0,0,0,4.47,2.45c8,1.82,14.33,3,20.66,1V371.83"/><path id="lox-tank-sic" class="cls-1" d="M65.84,373.92S51.7,371.74,46,386.07v51.74s1.92,8,19.85,7.28V373.92"/><path id="lox-tank-s4b" class="cls-1" d="M65.84,214.84S56,214.84,53,229.22a73.27,73.27,0,0,0,0,8.28s7.66,3.05,12.84,2.62Z"/><g id="j2-engines-5"><path class="cls-1" d="M49.2,357a59.41,59.41,0,0,0-1.49,12.72s2,3.21,7,0l-2.4-10.56L49.2,357"/><path id="j2-engine-1-2" data-name="j2-engine-1" class="cls-1" d="M65.84,363.27a13.81,13.81,0,0,1-4.54-.47s-3.61,8.34-3.48,9.64a26.5,26.5,0,0,1,8-.61Z"/></g><path id="fuel-tank-sic" class="cls-1" d="M65.84,446.36S50.15,443.61,46,458.93v41.66s6.15,11.39,19.85,9.82Z"/><g id="f1-engines-5"><path class="cls-1" d="M36.39,478.36l-5.25,13.57L16.6,498.79v5.65h6.87l-.81,4.44s-1.21,1.62,7.27,6.06l-1.76,9.28a22.49,22.49,0,0,0,19-1.5l-2.69-8.14s.48.29,5.23-2.56L42,478.36Z"/><path class="cls-1" d="M65.84,498.6l-13.69-.69s-6.9,19-6.9,23.12c0,0-1.38.46,8.28,4.63l-2.25,9.51s3.25,3.28,14.56,3.11V498.6"/></g><path id="outer-hull-2" data-name="outer-hull" class="cls-1" d="M66.41,178.58s15.35.22,18.13-2.52h0l1.23,53A105,105,0,0,1,91,253.18H66.41v-74.6h0"/><path id="s2-outer-hull-2" data-name="s2-outer-hull" class="cls-1" d="M91,253.18V373.24s-7.33.56-13.46.56c-5.76,0-11.11.12-11.11.12V253.18H91"/><path id="fuel-tank-s2-2" data-name="fuel-tank-s2" class="cls-1" d="M66.41,250.89s9.42-1.15,16.52,5.3L86.26,354s-6.62,8.27-19.85,9.58Z"/><path id="j2-engine-1-3" data-name="j2-engine-1" class="cls-1" d="M66.41,242.05a29.9,29.9,0,0,0,3.69-.13s4.46,8,4.33,9.3a26.67,26.67,0,0,0-8-.62Z"/><path id="fuel-tank-sivb-2" data-name="fuel-tank-sivb" class="cls-1" d="M66.41,183s14.71,2.55,16.52,16.3V234s-1.94,7.6-16.52,8.32V183"/><path id="instrument-unit-2" data-name="instrument-unit" class="cls-1" d="M66.41,174.54s3.94.1,9.37-.33c7.11-.56,8.76-2,8.76-2V182s-10.1,2.7-18.13,1v-8.44"/><path id="lunar-excursion-module-outer-hull-2" data-name="lunar-excursion-module-outer-hull" class="cls-1" d="M77.05,136s7.59,14.1,7.49,36.23c0,0-1.82,2.28-18.13,2.28V136Z"/><polygon id="lunar-excursion-module-2" data-name="lunar-excursion-module" class="cls-1" points="66.41 146.86 69.67 146.86 72.39 147.86 74.1 150.44 77.05 151.87 77.68 155.73 79.25 157.88 79.25 160.6 77.68 161.88 78.39 167.61 76.25 168.47 77.05 171.61 75.47 172.26 74.25 170.04 72.83 170.18 71.73 172.26 70.67 169.18 69.32 168.76 69.67 172.26 66.41 172.26 66.41 146.86"/><path id="service-module-2" data-name="service-module" class="cls-1" d="M66.41,118.26l10.64-2.49V136l-6.3,1.12s2.2,4.48,1.83,6H66.41V118.26h0"/><path id="command-module-2" data-name="command-module" class="cls-1" d="M66.41,99.26h2.17s6.78,9.85,8.47,16.51a40.71,40.71,0,0,1-10.64,2.49v-19h0"/><path id="launch-escape-system-2" data-name="launch-escape-system" class="cls-1" d="M66.41,57a12.7,12.7,0,0,1,3.13,6l-.38,21.87a3.58,3.58,0,0,1,1.59,1.85l-1.47,1.79s-.71,7.27-.7,10.75H66.41Z"/><path id="sic-outer-hull-2" data-name="sic-outer-hull" class="cls-1" d="M66.41,374.06,91,373.33,91.54,516a38.57,38.57,0,0,1-4.47,2.45c-8,1.82-14.33,3-20.66,1V371.83"/><path id="lox-tank-sic-2" data-name="lox-tank-sic" class="cls-1" d="M66.41,373.92s14.14-2.18,19.85,12.15v51.74s-1.92,8-19.85,7.28V373.92"/><path id="lox-tank-s4b-2" data-name="lox-tank-s4b" class="cls-1" d="M66.41,214.84s9.89,0,12.84,14.38a73.27,73.27,0,0,1,0,8.28s-7.66,3.05-12.84,2.62Z"/><g id="j2-engines-5-2" data-name="j2-engines-5"><path class="cls-1" d="M83.06,357a59.74,59.74,0,0,1,1.48,12.72s-2,3.21-7,0l2.4-10.56L83.06,357"/><path id="j2-engine-1-4" data-name="j2-engine-1" class="cls-1" d="M66.41,363.27A13.81,13.81,0,0,0,71,362.8s3.61,8.34,3.48,9.64a26.5,26.5,0,0,0-8-.61Z"/></g><path id="fuel-tank-sic-2" data-name="fuel-tank-sic" class="cls-1" d="M66.41,446.36s15.7-2.75,19.85,12.57v41.66S80.11,512,66.41,510.41Z"/><g id="f1-engines-5-2" data-name="f1-engines-5"><path class="cls-1" d="M95.87,478.36l5.24,13.57,14.54,6.86v5.65h-6.87l.81,4.44s1.21,1.62-7.27,6.06l1.76,9.28a22.49,22.49,0,0,1-19-1.5l2.69-8.14s-.48.29-5.23-2.56l7.66-33.66Z"/><path class="cls-1" d="M66.41,498.6l13.69-.69S87,516.89,87,521c0,0,1.38.46-8.28,4.63L81,535.17s-3.25,3.28-14.56,3.11V498.6"/></g></svg>