<svg xmlns="http://www.w3.org/2000/svg" viewBox="0 0 290.09 616.63"><defs><style>.cls-1,.cls-2{fill:#fff;stroke:#231f20;stroke-miterlimit:10;}.cls-1{stroke-width:0.56px;}</style></defs><g id="Layer_2" data-name="Layer 2"><polyline id="engine-section" class="cls-1" points="145.44 536.52 119.81 536.41 119.81 570.37 122.27 578.12 145.44 578.12 145.44 536.52"/><path id="intertank" class="cls-1" d="M145.44,294s-26.72-.11-25.63,1l-.1,38.75h25.73V294"/><polyline id="forward-segment-with-igniter" class="cls-1" points="106.42 350.53 95.95 350.53 95.95 398.84 118.18 398.84 118.31 350.5 106.42 350.53"/><path id="forward-skirt" class="cls-1" d="M145.44,216.49l-25.88.71,1.33,1.72-.15,14h24.7V216.49"/><polyline id="center-center-segment" class="cls-1" points="118.18 398.84 95.95 398.84 95.95 446.71 118.18 446.71 118.18 398.84"/><polyline id="center-forward-segment" class="cls-1" points="118.25 446.71 96.02 446.71 96.02 494.58 118.25 494.58 118.25 446.71"/><polyline id="aft-section" class="cls-1" points="118.31 517.94 96.15 517.94 95.95 566.95 118.31 566.95 118.31 517.94"/><path id="aft-skirt" class="cls-1" d="M118.31,567H96l.2,3.37s-4.36,3.23-1,4.61l-3.55,9.46h2.07s-.92,1.61,4.62,2.08A20.76,20.76,0,0,0,96,595.94h3.27s8.52-.45,16.37,0h2.72s-.41-8.32-1.56-9.47,2.65,1.38,3.06-1.62l3.86-.46s-5.36-13.88-5.36-17.44"/><polygon id="encapsulated-service-module-panels" class="cls-1" points="145.44 112.43 128.24 112.43 128.24 145.98 145.44 146.04 145.44 112.43"/><path id="spacecraft-adpater" class="cls-1" d="M145.44,112.43H131.77v10.9l1.76,3.16s-4.23,10.68-4.46,12.2h16.37Z"/><path id="launch-vehicle-stage-adapter" class="cls-2" d="M145.44,168.09l-15.62.24s-10.62,46.94-10.26,48.87l25.88-.71v-48.4h0"/><polyline id="center-aft-segment" class="cls-1" points="118.25 494.58 96.02 494.58 96.15 517.94 118.31 517.94 118.25 494.58"/><path id="interim-cryogenic-propulsion-stage" class="cls-1" d="M145.44,145.91l-17.2.07s0,.53,1.74,1.32l-.16,21h1.53s5.38,9.7,4.64,11l-.08,7.93a40.77,40.77,0,0,0,2,6h6.65v4s-4.84,2.06-5.41,19.29h6.25Z"/><path id="nozzle" class="cls-1" d="M115.59,569.19H99.08v2.95S96,582.67,96,584.71c0,0,3.88.33,4.84,0,0,0-2.29,8.48-1.57,11.23h16.37l-1.36-11.33h4.08l-2.72-15.42"/><path id="forward-assembly" class="cls-1" d="M107.57,276.39s-.9-4.05-10.79,28.78v10a2.41,2.41,0,0,0-2,1.26c-.9,1.35,0,6.52,0,6.52l1.25.31,0,27.29,22.36,0q.09-22.61.17-45.21S110.32,280.5,107.57,276.39Z"/><path id="orion-stage-adapter" class="cls-1" d="M145.44,138.69s-12,.05-17.2,7.29l17.2.06"/><path id="liquid-oxygen-tank" class="cls-1" d="M145.44,218.29A43.9,43.9,0,0,0,132,221.91c-4.6,2.29-11.22,11-11.22,11l-.49,61.71s9.91,14.38,25.19,15.12V218.29"/><path id="liquid-hydrogen-tank" class="cls-1" d="M145.44,315.15s-22.27,1.29-25.73,18.62h0l.1,202.64S118.66,549,140.76,553.6c0,0,0,2.29,4.68,3.44V315.15"/><path id="solid-rocket-booster" class="cls-1" d="M115.13,323.7s-8-6-15.61,0h0l-.44,245.49h16.51l-.46-245.49"/><path id="rs25-engine-2" class="cls-1" d="M141.33,578.12s-2.64-9.63-4.24-9.82H130.2c0,.31-1-1.83-4.3,9.56l.06.26h4.24s-4.53,10.23-3.49,17.82h14.15s0-9-2.32-14.1c-.45-1,.72,1.34-1.73-3.72h4.52"/><path id="foward-skirt-avionics" class="cls-1" d="M107.57,276.39s-.08-6.05-8,27.38V323.7s5.43-6,15.61,0l.44-19.26s-5.27-18.4-8-28.05"/><polygon id="core-stage-attach-ring" class="cls-1" points="123.67 557.04 118.31 557.04 118.25 555.59 95.16 555.59 95.16 560.12 118.31 560.12 118.31 558.76 123.67 558.61 123.67 557.04"/><path id="launch-abort-sytem" class="cls-1" d="M145.44,18.48l-2.66,4.6.4,27.67-1,.5-2.65,4,2.95,1v10L138,85.6s-8.2,13.41-8.63,20.76a36.85,36.85,0,0,1-1.08,5.4h17.2Z"/><path id="crew-module" class="cls-1" d="M145.44,85.24,138,85.6V94l-7.71,14,3.71,1.74c6.31,1.71,3.63.89,11.49,1.94V85.24"/><polyline id="engine-section-2" data-name="engine-section" class="cls-1" points="145.72 536.52 171.35 536.41 171.35 570.37 168.89 578.12 145.72 578.12 145.72 536.52"/><path id="intertank-2" data-name="intertank" class="cls-1" d="M145.72,294s26.72-.11,25.63,1l.1,38.75H145.72V294"/><polyline id="forward-segment-with-igniter-2" data-name="forward-segment-with-igniter" class="cls-1" points="184.75 350.53 195.21 350.53 195.21 398.84 172.98 398.84 172.85 350.5 184.75 350.53"/><path id="forward-skirt-2" data-name="forward-skirt" class="cls-1" d="M145.72,216.49l25.88.71-1.33,1.72.16,14H145.72V216.49"/><polyline id="center-center-segment-2" data-name="center-center-segment" class="cls-1" points="172.98 398.84 195.21 398.84 195.21 446.71 172.98 446.71 172.98 398.84"/><polyline id="center-forward-segment-2" data-name="center-forward-segment" class="cls-1" points="172.92 446.71 195.15 446.71 195.15 494.58 172.92 494.58 172.92 446.71"/><polyline id="aft-section-2" data-name="aft-section" class="cls-1" points="172.85 517.94 195.01 517.94 195.21 566.95 172.85 566.95 172.85 517.94"/><path id="aft-skirt-2" data-name="aft-skirt" class="cls-1" d="M172.85,567h22.36l-.2,3.37s4.36,3.23,1,4.61l3.56,9.46h-2.08s.92,1.61-4.61,2.08a20.68,20.68,0,0,1,2.34,9.47h-3.27s-8.52-.45-16.37,0h-2.72s.41-8.32,1.56-9.47-2.65,1.38-3.06-1.62l-3.86-.46s5.36-13.88,5.36-17.44"/><polygon id="encapsulated-service-module-panels-2" data-name="encapsulated-service-module-panels" class="cls-1" points="145.72 112.43 162.92 112.43 162.92 145.98 145.72 146.04 145.72 112.43"/><path id="spacecraft-adpater-2" data-name="spacecraft-adpater" class="cls-1" d="M145.72,112.43h13.67v10.9l-1.75,3.16s4.22,10.68,4.45,12.2H145.72Z"/><path id="launch-vehicle-stage-adapter-2" data-name="launch-vehicle-stage-adapter" class="cls-2" d="M145.72,168.09l15.62.24S172,215.27,171.6,217.2l-25.88-.71v-48.4h0"/><polyline id="center-aft-segment-2" data-name="center-aft-segment" class="cls-1" points="172.92 494.58 195.15 494.58 195.01 517.94 172.85 517.94 172.92 494.58"/><path id="interim-cryogenic-propulsion-stage-2" data-name="interim-cryogenic-propulsion-stage" class="cls-1" d="M145.72,145.91l17.2.07s0,.53-1.74,1.32l.16,21h-1.53s-5.38,9.7-4.64,11l.08,7.93a41.3,41.3,0,0,1-2,6h-6.66v4s4.84,2.06,5.41,19.29h-6.25Z"/><path id="nozzle-2" data-name="nozzle" class="cls-1" d="M175.57,569.19h16.51v2.95s3,10.53,3.13,12.57c0,0-3.87.33-4.84,0,0,0,2.29,8.48,1.57,11.23H175.57l1.36-11.33h-4.08l2.72-15.42"/><path id="forward-assembly-2" data-name="forward-assembly" class="cls-1" d="M183.59,276.39s.9-4.05,10.8,28.78v10a2.4,2.4,0,0,1,2,1.26c.9,1.35,0,6.52,0,6.52l-1.25.31.05,27.29-22.36,0q-.09-22.61-.17-45.21S180.84,280.5,183.59,276.39Z"/><path id="orion-stage-adapter-2" data-name="orion-stage-adapter" class="cls-1" d="M145.72,138.69s12,.05,17.2,7.29l-17.2.06"/><path id="liquid-oxygen-tank-2" data-name="liquid-oxygen-tank" class="cls-1" d="M145.72,218.29a43.83,43.83,0,0,1,13.48,3.62c4.6,2.29,11.23,11,11.23,11l.48,61.71S161,309,145.72,309.76V218.29"/><path id="liquid-hydrogen-tank-2" data-name="liquid-hydrogen-tank" class="cls-1" d="M145.72,315.15s22.27,1.29,25.73,18.62h0l-.1,202.64S172.5,549,150.4,553.6c0,0,0,2.29-4.68,3.44V315.15"/><path id="solid-rocket-booster-2" data-name="solid-rocket-booster" class="cls-1" d="M176,323.7s8-6,15.61,0h0l.44,245.49H175.57L176,323.7"/><path id="rs25-engine-2-2" data-name="rs25-engine-2" class="cls-1" d="M149.83,578.12s2.64-9.63,4.24-9.82H161c0,.31,1-1.83,4.3,9.56l-.06.26H161s4.53,10.23,3.49,17.82H150.3s0-9,2.32-14.1c.46-1-.72,1.34,1.73-3.72h-4.52"/><path id="foward-skirt-avionics-2" data-name="foward-skirt-avionics" class="cls-1" d="M183.59,276.39s.08-6.05,8,27.38V323.7s-5.43-6-15.61,0l-.44-19.26s5.27-18.4,8-28.05"/><polygon id="core-stage-attach-ring-2" data-name="core-stage-attach-ring" class="cls-1" points="167.49 557.04 172.85 557.04 172.92 555.59 196 555.59 196 560.12 172.85 560.12 172.85 558.76 167.49 558.61 167.49 557.04"/><path id="launch-abort-sytem-2" data-name="launch-abort-sytem" class="cls-1" d="M145.72,18.48l2.66,4.6L148,50.75l1,.5,2.66,4-3,1v10l4.54,19.46s8.19,13.41,8.62,20.76a38.59,38.59,0,0,0,1.08,5.4h-17.2Z"/><path id="crew-module-2" data-name="crew-module" class="cls-1" d="M145.72,85.24l7.5.36V94l7.7,14-3.71,1.74c-6.31,1.71-3.63.89-11.49,1.94V85.24"/></g></svg>